<svg width="868" height="266" viewBox="0 0 868 266" fill="none" xmlns="http://www.w3.org/2000/svg">
<path d="M57.7152 65.5455V259H16.814V65.5455H57.7152ZM130.851 175.119V259H90.6108V113.909H128.962V139.508H130.662C133.874 131.069 139.258 124.394 146.815 119.482C154.372 114.507 163.534 112.02 174.303 112.02C184.379 112.02 193.164 114.224 200.657 118.632C208.151 123.04 213.976 129.338 218.133 137.524C222.289 145.648 224.367 155.345 224.367 166.618V259H184.127V173.797C184.19 164.918 181.922 157.991 177.325 153.016C172.729 147.978 166.4 145.459 158.339 145.459C152.923 145.459 148.138 146.624 143.981 148.954C139.888 151.284 136.676 154.685 134.346 159.156C132.079 163.563 130.914 168.885 130.851 175.119ZM321.637 261.834C306.964 261.834 294.275 258.717 283.569 252.482C272.927 246.185 264.709 237.432 258.915 226.223C253.122 214.95 250.225 201.883 250.225 187.021C250.225 172.033 253.122 158.935 258.915 147.726C264.709 136.454 272.927 127.7 283.569 121.466C294.275 115.169 306.964 112.02 321.637 112.02C336.31 112.02 348.967 115.169 359.61 121.466C370.315 127.7 378.565 136.454 384.359 147.726C390.152 158.935 393.049 172.033 393.049 187.021C393.049 201.883 390.152 214.95 384.359 226.223C378.565 237.432 370.315 246.185 359.61 252.482C348.967 258.717 336.31 261.834 321.637 261.834ZM321.826 230.662C328.501 230.662 334.074 228.773 338.545 224.994C343.017 221.153 346.386 215.926 348.653 209.314C350.983 202.702 352.148 195.176 352.148 186.738C352.148 178.3 350.983 170.774 348.653 164.162C346.386 157.55 343.017 152.323 338.545 148.481C334.074 144.64 328.501 142.72 321.826 142.72C315.088 142.72 309.42 144.64 304.823 148.481C300.289 152.323 296.857 157.55 294.527 164.162C292.26 170.774 291.127 178.3 291.127 186.738C291.127 195.176 292.26 202.702 294.527 209.314C296.857 215.926 300.289 221.153 304.823 224.994C309.42 228.773 315.088 230.662 321.826 230.662Z" fill="#292929"/>
<path d="M419.97 259V65.5455H460.872V225.278H543.808V259H419.97ZM611.512 261.739C602.255 261.739 594.005 260.133 586.763 256.922C579.522 253.647 573.791 248.83 569.572 242.47C565.415 236.046 563.337 228.049 563.337 218.476C563.337 210.416 564.817 203.646 567.777 198.168C570.737 192.689 574.767 188.281 579.867 184.944C584.968 181.606 590.762 179.087 597.248 177.386C603.798 175.686 610.662 174.49 617.841 173.797C626.28 172.915 633.08 172.096 638.244 171.341C643.408 170.522 647.155 169.326 649.485 167.752C651.815 166.177 652.98 163.847 652.98 160.761V160.194C652.98 154.212 651.091 149.584 647.312 146.309C643.597 143.035 638.307 141.397 631.443 141.397C624.201 141.397 618.439 143.003 614.157 146.215C609.874 149.363 607.041 153.331 605.655 158.117L568.438 155.093C570.327 146.278 574.043 138.657 579.585 132.234C585.126 125.748 592.274 120.773 601.027 117.31C609.843 113.783 620.045 112.02 631.632 112.02C639.692 112.02 647.407 112.965 654.774 114.854C662.206 116.743 668.786 119.671 674.517 123.638C680.31 127.606 684.876 132.707 688.213 138.941C691.551 145.112 693.22 152.512 693.22 161.139V259H655.058V238.88H653.925C651.594 243.414 648.477 247.413 644.573 250.877C640.669 254.277 635.977 256.953 630.498 258.906C625.02 260.795 618.691 261.739 611.512 261.739ZM623.036 233.968C628.956 233.968 634.183 232.803 638.716 230.473C643.25 228.08 646.808 224.869 649.391 220.838C651.972 216.808 653.263 212.242 653.263 207.141V191.744C652.004 192.563 650.272 193.319 648.068 194.011C645.927 194.641 643.502 195.239 640.795 195.806C638.086 196.31 635.379 196.782 632.671 197.223C629.963 197.601 627.507 197.947 625.303 198.262C620.58 198.955 616.455 200.057 612.929 201.569C609.403 203.08 606.663 205.126 604.711 207.708C602.759 210.227 601.782 213.375 601.782 217.154C601.782 222.633 603.766 226.82 607.734 229.718C611.764 232.551 616.865 233.968 623.036 233.968ZM725.193 259V65.5455H765.436V138.28H766.661C768.425 134.376 770.98 130.408 774.312 126.378C777.714 122.284 782.124 118.884 787.542 116.176C793.016 113.406 799.82 112.02 807.94 112.02C818.524 112.02 828.282 114.791 837.228 120.332C846.167 125.811 853.314 134.092 858.669 145.175C864.017 156.196 866.698 170.019 866.698 186.644C866.698 202.828 864.08 216.493 858.858 227.639C853.692 238.722 846.636 247.129 837.697 252.86C828.821 258.528 818.867 261.362 807.849 261.362C800.037 261.362 793.394 260.07 787.913 257.489C782.502 254.906 778.064 251.663 774.599 247.759C771.134 243.792 768.488 239.793 766.661 235.763H764.869V259H725.193ZM764.582 186.455C764.582 195.082 765.779 202.607 768.173 209.031C770.567 215.454 774.032 220.46 778.568 224.05C783.097 227.576 788.606 229.34 795.095 229.34C801.647 229.34 807.184 227.545 811.72 223.955C816.256 220.303 819.686 215.265 822.017 208.842C824.411 202.355 825.608 194.893 825.608 186.455C825.608 178.079 824.439 170.711 822.108 164.351C819.784 157.991 816.347 153.016 811.818 149.426C807.282 145.837 801.71 144.042 795.095 144.042C788.543 144.042 783.006 145.774 778.47 149.237C773.997 152.701 770.567 157.613 768.173 163.973C765.779 170.333 764.582 177.827 764.582 186.455Z" fill="#00C880"/>
</svg>
